<svg xmlns="http://www.w3.org/2000/svg" viewBox="0 0 1200 800" preserveAspectRatio="xMidYMid slice" role="img" aria-label="A deli counter storefront at midday"><title>A deli counter storefront at midday</title><defs><linearGradient id="sky" x1="0" y1="0" x2="0" y2="1"><stop offset="0" stop-color="#A5B8CD"/><stop offset="1" stop-color="#E7EDF4"/></linearGradient><radialGradient id="glow" cx="50%" cy="22%" r="72%"><stop offset="0" stop-color="#FFFFFF" stop-opacity="0.16"/><stop offset="1" stop-color="#FFFFFF" stop-opacity="0"/></radialGradient><radialGradient id="vig" cx="50%" cy="46%" r="78%"><stop offset="0.55" stop-color="#000000" stop-opacity="0"/><stop offset="1" stop-color="#000814" stop-opacity="0.34"/></radialGradient></defs><rect width="1200" height="800" fill="url(#sky)"/><circle cx="640" cy="150" r="86" fill="#FFFFFF" opacity="0.35"/><g fill="#FFFFFF" opacity="0.7" transform="translate(630.7 87.4) scale(1)"><ellipse cx="0" cy="0" rx="86" ry="24"/><ellipse cx="-46" cy="8" rx="52" ry="19"/><ellipse cx="42" cy="10" rx="60" ry="21"/></g><g fill="#FFFFFF" opacity="0.7" transform="translate(29.8 164.5) scale(0.8)"><ellipse cx="0" cy="0" rx="86" ry="24"/><ellipse cx="-46" cy="8" rx="52" ry="19"/><ellipse cx="42" cy="10" rx="60" ry="21"/></g><g fill="#16294A" opacity="0.26"><rect x="-40" y="272.5" width="118.7" height="147.5"/><rect x="14.4" y="230.5" width="10" height="42"/><rect x="91.4" y="352.3" width="86.3" height="67.7"/><rect x="193" y="206.1" width="118.5" height="213.9"/><rect x="247.3" y="164.1" width="10" height="42"/><rect x="317.9" y="279.7" width="98" height="140.3"/><rect x="361.9" y="237.7" width="10" height="42"/><rect x="423.2" y="324.2" width="113" height="95.8"/><rect x="542.4" y="167" width="82.1" height="253"/><rect x="578.4" y="125" width="10" height="42"/><rect x="643.8" y="286.2" width="65.2" height="133.8"/><rect x="718.4" y="176.8" width="90.9" height="243.2"/><rect x="758.8" y="134.8" width="10" height="42"/><rect x="815.6" y="189" width="79.2" height="231"/><rect x="900.9" y="160.5" width="76.5" height="259.5"/><rect x="996.2" y="314.7" width="54.4" height="105.3"/><rect x="1018.4" y="272.7" width="10" height="42"/><rect x="1062.4" y="222.8" width="58.3" height="197.2"/><rect x="1086.6" y="180.8" width="10" height="42"/><rect x="1128.2" y="243.4" width="85" height="176.6"/><rect x="1229.9" y="198.2" width="80.9" height="221.8"/></g><rect x="-60" y="238" width="281" height="452" fill="#1D4557" opacity="0.92"/><rect x="906" y="229" width="354" height="461" fill="#1D4557" opacity="0.8"/><g fill="#BBD8FB"><rect x="60" y="278" width="20" height="24.8" opacity="0.9"/><rect x="100" y="278" width="20" height="24.8" opacity="0.7"/><rect x="140" y="278" width="20" height="24.8" opacity="0.9"/><rect x="60" y="318" width="20" height="24.8" opacity="0.6"/><rect x="100" y="318" width="20" height="24.8" opacity="0.5"/><rect x="140" y="318" width="20" height="24.8" opacity="0.7"/><rect x="-20" y="358" width="20" height="24.8" opacity="0.6"/><rect x="20" y="438" width="20" height="24.8" opacity="0.9"/><rect x="60" y="438" width="20" height="24.8" opacity="0.9"/><rect x="100" y="438" width="20" height="24.8" opacity="0.8"/><rect x="100" y="478" width="20" height="24.8" opacity="0.5"/><rect x="20" y="518" width="20" height="24.8" opacity="0.5"/><rect x="20" y="558" width="20" height="24.8" opacity="0.8"/><rect x="60" y="558" width="20" height="24.8" opacity="0.8"/><rect x="-20" y="598" width="20" height="24.8" opacity="0.6"/><rect x="60" y="598" width="20" height="24.8" opacity="0.7"/><rect x="100" y="598" width="20" height="24.8" opacity="0.8"/></g><g fill="#BBD8FB"><rect x="1026" y="269" width="20" height="24.8" opacity="0.6"/><rect x="1146" y="269" width="20" height="24.8" opacity="0.9"/><rect x="1026" y="309" width="20" height="24.8" opacity="0.4"/><rect x="1066" y="309" width="20" height="24.8" opacity="0.9"/><rect x="1106" y="309" width="20" height="24.8" opacity="0.7"/><rect x="986" y="349" width="20" height="24.8" opacity="0.9"/><rect x="1026" y="349" width="20" height="24.8" opacity="0.7"/><rect x="1146" y="349" width="20" height="24.8" opacity="0.4"/><rect x="946" y="389" width="20" height="24.8" opacity="0.4"/><rect x="986" y="389" width="20" height="24.8" opacity="0.4"/><rect x="1026" y="389" width="20" height="24.8" opacity="0.4"/><rect x="1066" y="389" width="20" height="24.8" opacity="0.4"/><rect x="1146" y="389" width="20" height="24.8" opacity="0.9"/><rect x="986" y="429" width="20" height="24.8" opacity="0.5"/><rect x="1066" y="469" width="20" height="24.8" opacity="0.5"/><rect x="1066" y="509" width="20" height="24.8" opacity="0.5"/><rect x="1106" y="509" width="20" height="24.8" opacity="0.7"/><rect x="946" y="549" width="20" height="24.8" opacity="0.7"/><rect x="986" y="549" width="20" height="24.8" opacity="0.6"/><rect x="946" y="589" width="20" height="24.8" opacity="0.6"/><rect x="1026" y="589" width="20" height="24.8" opacity="0.7"/><rect x="1146" y="589" width="20" height="24.8" opacity="0.8"/></g><rect x="211" y="175" width="705" height="515" fill="#26566E"/><g fill="#163A4C"><rect x="199" y="153" width="729" height="30" rx="4"/><rect x="380.2" y="123" width="366.6" height="34" rx="4"/><rect x="507.09999999999997" y="97" width="112.8" height="30" rx="4"/></g><rect x="244.8" y="235" width="73.3" height="130" rx="5" fill="#BBD8FB" opacity="0.7"/><rect x="244.8" y="235" width="73.3" height="130" rx="5" fill="none" stroke="#163A4C" stroke-width="7"/><rect x="385.8" y="235" width="73.3" height="130" rx="5" fill="#BBD8FB" opacity="0.7"/><rect x="385.8" y="235" width="73.3" height="130" rx="5" fill="none" stroke="#163A4C" stroke-width="7"/><rect x="526.8" y="235" width="73.3" height="130" rx="5" fill="#BBD8FB" opacity="0.7"/><rect x="526.8" y="235" width="73.3" height="130" rx="5" fill="none" stroke="#163A4C" stroke-width="7"/><rect x="667.8" y="235" width="73.3" height="130" rx="5" fill="#BBD8FB" opacity="0.7"/><rect x="667.8" y="235" width="73.3" height="130" rx="5" fill="none" stroke="#163A4C" stroke-width="7"/><rect x="808.8" y="235" width="73.3" height="130" rx="5" fill="#BBD8FB" opacity="0.7"/><rect x="808.8" y="235" width="73.3" height="130" rx="5" fill="none" stroke="#163A4C" stroke-width="7"/><rect x="816" y="407" width="8" height="34" fill="#163A4C"/><rect x="690" y="437" width="260" height="74" rx="10" fill="#F7F3EA"/><text x="820" y="487" text-anchor="middle" font-family="'Space Grotesk','DM Sans',Helvetica,Arial,sans-serif" font-size="38" font-weight="700" letter-spacing="6" fill="#163A4C">DELI</text><rect x="211" y="413" width="705" height="10" fill="#0A1626" opacity="0.15"/><path d="M191 525 L297.4 525 L297.4 577 q-53.2 30 -106.4 0 Z" fill="#F7F3EA"/><path d="M297.4 525 L403.9 525 L403.9 577 q-53.2 30 -106.4 0 Z" fill="#FBBE2E"/><path d="M403.9 525 L510.3 525 L510.3 577 q-53.2 30 -106.4 0 Z" fill="#F7F3EA"/><path d="M510.3 525 L616.7 525 L616.7 577 q-53.2 30 -106.4 0 Z" fill="#FBBE2E"/><path d="M616.7 525 L723.1 525 L723.1 577 q-53.2 30 -106.4 0 Z" fill="#F7F3EA"/><path d="M723.1 525 L829.6 525 L829.6 577 q-53.2 30 -106.4 0 Z" fill="#FBBE2E"/><path d="M829.6 525 L936 525 L936 577 q-53.2 30 -106.4 0 Z" fill="#F7F3EA"/><rect x="191" y="517" width="745" height="12" rx="4" fill="#0A1626" opacity="0.25"/><rect x="361" y="611" width="521" height="63" rx="8" fill="#20344F"/><rect x="361" y="611" width="521" height="63" rx="8" fill="#66AEFF" opacity="0.34"/><rect x="616.5" y="611" width="10" height="63" fill="#163A4C" opacity="0.8"/><rect x="251" y="611" width="84" height="79" rx="6" fill="#163A4C"/><rect x="265" y="629" width="56" height="70" rx="4" fill="#BBD8FB" opacity="0.7"/><circle cx="315" cy="743" r="7" fill="#FBBE2E"/><rect x="0" y="690" width="1200" height="110" fill="#9AA4B3"/><rect x="0" y="690" width="1200" height="8" fill="#0A1626" opacity="0.25"/><rect x="0" y="754" width="1200" height="10" fill="#0A1626" opacity="0.18"/><rect x="239" y="646" width="64" height="44" rx="6" fill="#BE6B3D"/><ellipse cx="271" cy="630" rx="44" ry="28" fill="#22836B"/><ellipse cx="251" cy="642" rx="24" ry="17" fill="#12513F" opacity="0.8"/><rect x="824" y="646" width="64" height="44" rx="6" fill="#BE6B3D"/><ellipse cx="856" cy="630" rx="44" ry="28" fill="#22836B"/><ellipse cx="836" cy="642" rx="24" ry="17" fill="#12513F" opacity="0.8"/><g fill="#0A1626"><g transform="translate(731.5 746) scale(1)"><circle cx="0" cy="-74" r="13"/><path d="M-14 -58 q14 -8 28 0 l6 34 -12 2 -3 22h-10l-3 -22 -12 -2z"/></g><g transform="translate(449.1 746) scale(0.8)"><circle cx="0" cy="-74" r="13"/><path d="M-14 -58 q14 -8 28 0 l6 34 -12 2 -3 22h-10l-3 -22 -12 -2z"/></g></g><g fill="#0A1626" opacity="0.9"><rect x="1082" y="400" width="12" height="290"/><rect x="1022" y="390" width="72" height="12" rx="6"/></g><circle cx="1028" cy="412" r="21" fill="#FBBE2E" opacity="0.45"/><rect width="1200" height="800" fill="url(#glow)"/><rect width="1200" height="800" fill="url(#vig)"/></svg>
