<svg xmlns="http://www.w3.org/2000/svg" viewBox="0 0 1200 800" preserveAspectRatio="xMidYMid slice" role="img" aria-label="An art fair on a closed street"><title>An art fair on a closed street</title><defs><linearGradient id="sky" x1="0" y1="0" x2="0" y2="1"><stop offset="0" stop-color="#8FC2F5"/><stop offset="1" stop-color="#DFEDFC"/></linearGradient><radialGradient id="glow" cx="50%" cy="22%" r="72%"><stop offset="0" stop-color="#FFFFFF" stop-opacity="0.16"/><stop offset="1" stop-color="#FFFFFF" stop-opacity="0"/></radialGradient><radialGradient id="vig" cx="50%" cy="46%" r="78%"><stop offset="0.55" stop-color="#000000" stop-opacity="0"/><stop offset="1" stop-color="#000814" stop-opacity="0.34"/></radialGradient></defs><rect width="1200" height="800" fill="url(#sky)"/><circle cx="880" cy="190" r="86" fill="#FFF0C4" opacity="0.9"/><g fill="#16294A" opacity="0.3"><rect x="-40" y="238.1" width="93.3" height="221.9"/><rect x="61.6" y="361.4" width="88" height="98.6"/><rect x="100.6" y="319.4" width="10" height="42"/><rect x="157.1" y="261.6" width="89.1" height="198.4"/><rect x="262.3" y="390" width="122.1" height="70"/><rect x="318.3" y="348" width="10" height="42"/><rect x="394" y="330" width="84.7" height="130"/><rect x="431.3" y="288" width="10" height="42"/><rect x="490.3" y="320.1" width="48.7" height="139.9"/><rect x="543.7" y="374.8" width="118.4" height="85.2"/><rect x="674.7" y="243" width="75.2" height="217"/><rect x="759.5" y="235.1" width="118.4" height="224.9"/><rect x="886.3" y="287.8" width="93.5" height="172.2"/><rect x="987.2" y="336.1" width="77.1" height="123.9"/><rect x="1020.7" y="294.1" width="10" height="42"/><rect x="1078.5" y="252.8" width="72" height="207.2"/><rect x="1158.7" y="224.5" width="78.7" height="235.5"/><rect x="1193" y="182.5" width="10" height="42"/></g><rect x="0" y="500" width="1200" height="300" fill="#A79E8C"/><rect x="0" y="500" width="1200" height="8" fill="#0A1626" opacity="0.2"/><g transform="translate(110 0)"><rect x="0" y="290" width="48" height="58" fill="#F7F3EA"/><rect x="48" y="290" width="48" height="58" fill="#BE6B3D"/><rect x="96" y="290" width="48" height="58" fill="#F7F3EA"/><rect x="144" y="290" width="48" height="58" fill="#BE6B3D"/><rect x="192" y="290" width="48" height="58" fill="#F7F3EA"/><path d="M0 348 l240 0 l0 14 l-240 0 z" fill="#0A1626" opacity="0.28"/><rect x="8" y="348" width="8" height="180" fill="#0A1626" opacity="0.7"/><rect x="222" y="348" width="8" height="180" fill="#0A1626" opacity="0.7"/><rect x="16" y="470" width="206" height="60" rx="6" fill="#E4D9C4"/><circle cx="44" cy="462" r="14" fill="#BE6B3D"/><circle cx="94" cy="462" r="14" fill="#FBBE2E"/><circle cx="144" cy="462" r="14" fill="#22836B"/><circle cx="194" cy="462" r="14" fill="#9C5346"/></g><g transform="translate(410 0)"><rect x="0" y="290" width="48" height="58" fill="#F7F3EA"/><rect x="48" y="290" width="48" height="58" fill="#22836B"/><rect x="96" y="290" width="48" height="58" fill="#F7F3EA"/><rect x="144" y="290" width="48" height="58" fill="#22836B"/><rect x="192" y="290" width="48" height="58" fill="#F7F3EA"/><path d="M0 348 l240 0 l0 14 l-240 0 z" fill="#0A1626" opacity="0.28"/><rect x="8" y="348" width="8" height="180" fill="#0A1626" opacity="0.7"/><rect x="222" y="348" width="8" height="180" fill="#0A1626" opacity="0.7"/><rect x="16" y="470" width="206" height="60" rx="6" fill="#E4D9C4"/><circle cx="44" cy="462" r="14" fill="#BE6B3D"/><circle cx="94" cy="462" r="14" fill="#FBBE2E"/><circle cx="144" cy="462" r="14" fill="#22836B"/><circle cx="194" cy="462" r="14" fill="#9C5346"/></g><g transform="translate(710 0)"><rect x="0" y="290" width="48" height="58" fill="#F7F3EA"/><rect x="48" y="290" width="48" height="58" fill="#2F7BEE"/><rect x="96" y="290" width="48" height="58" fill="#F7F3EA"/><rect x="144" y="290" width="48" height="58" fill="#2F7BEE"/><rect x="192" y="290" width="48" height="58" fill="#F7F3EA"/><path d="M0 348 l240 0 l0 14 l-240 0 z" fill="#0A1626" opacity="0.28"/><rect x="8" y="348" width="8" height="180" fill="#0A1626" opacity="0.7"/><rect x="222" y="348" width="8" height="180" fill="#0A1626" opacity="0.7"/><rect x="16" y="470" width="206" height="60" rx="6" fill="#E4D9C4"/><circle cx="44" cy="462" r="14" fill="#BE6B3D"/><circle cx="94" cy="462" r="14" fill="#FBBE2E"/><circle cx="144" cy="462" r="14" fill="#22836B"/><circle cx="194" cy="462" r="14" fill="#9C5346"/></g><g transform="translate(1010 0)"><rect x="0" y="290" width="48" height="58" fill="#F7F3EA"/><rect x="48" y="290" width="48" height="58" fill="#FBBE2E"/><rect x="96" y="290" width="48" height="58" fill="#F7F3EA"/><rect x="144" y="290" width="48" height="58" fill="#FBBE2E"/><rect x="192" y="290" width="48" height="58" fill="#F7F3EA"/><path d="M0 348 l240 0 l0 14 l-240 0 z" fill="#0A1626" opacity="0.28"/><rect x="8" y="348" width="8" height="180" fill="#0A1626" opacity="0.7"/><rect x="222" y="348" width="8" height="180" fill="#0A1626" opacity="0.7"/><rect x="16" y="470" width="206" height="60" rx="6" fill="#E4D9C4"/><circle cx="44" cy="462" r="14" fill="#BE6B3D"/><circle cx="94" cy="462" r="14" fill="#FBBE2E"/><circle cx="144" cy="462" r="14" fill="#22836B"/><circle cx="194" cy="462" r="14" fill="#9C5346"/></g><g fill="#0A1626"><g transform="translate(1102.6 740) scale(1)"><circle cx="0" cy="-74" r="13"/><path d="M-14 -58 q14 -8 28 0 l6 34 -12 2 -3 22h-10l-3 -22 -12 -2z"/></g><g transform="translate(258.1 740) scale(1.1)"><circle cx="0" cy="-74" r="13"/><path d="M-14 -58 q14 -8 28 0 l6 34 -12 2 -3 22h-10l-3 -22 -12 -2z"/></g><g transform="translate(857.1 740) scale(1.1)"><circle cx="0" cy="-74" r="13"/><path d="M-14 -58 q14 -8 28 0 l6 34 -12 2 -3 22h-10l-3 -22 -12 -2z"/></g><g transform="translate(612.6 740) scale(1.1)"><circle cx="0" cy="-74" r="13"/><path d="M-14 -58 q14 -8 28 0 l6 34 -12 2 -3 22h-10l-3 -22 -12 -2z"/></g><g transform="translate(60.6 740) scale(1.2)"><circle cx="0" cy="-74" r="13"/><path d="M-14 -58 q14 -8 28 0 l6 34 -12 2 -3 22h-10l-3 -22 -12 -2z"/></g><g transform="translate(399.5 740) scale(1)"><circle cx="0" cy="-74" r="13"/><path d="M-14 -58 q14 -8 28 0 l6 34 -12 2 -3 22h-10l-3 -22 -12 -2z"/></g><g transform="translate(1007.1 740) scale(1)"><circle cx="0" cy="-74" r="13"/><path d="M-14 -58 q14 -8 28 0 l6 34 -12 2 -3 22h-10l-3 -22 -12 -2z"/></g><g transform="translate(1057.5 740) scale(1.2)"><circle cx="0" cy="-74" r="13"/><path d="M-14 -58 q14 -8 28 0 l6 34 -12 2 -3 22h-10l-3 -22 -12 -2z"/></g></g><rect width="1200" height="800" fill="url(#glow)"/><rect width="1200" height="800" fill="url(#vig)"/></svg>
