<svg xmlns="http://www.w3.org/2000/svg" viewBox="0 0 1200 800" preserveAspectRatio="xMidYMid slice" role="img" aria-label="A parade route lined with people"><title>A parade route lined with people</title><defs><linearGradient id="sky" x1="0" y1="0" x2="0" y2="1"><stop offset="0" stop-color="#8FC2F5"/><stop offset="1" stop-color="#DFEDFC"/></linearGradient><radialGradient id="glow" cx="50%" cy="22%" r="72%"><stop offset="0" stop-color="#FFFFFF" stop-opacity="0.16"/><stop offset="1" stop-color="#FFFFFF" stop-opacity="0"/></radialGradient><radialGradient id="vig" cx="50%" cy="46%" r="78%"><stop offset="0.55" stop-color="#000000" stop-opacity="0"/><stop offset="1" stop-color="#000814" stop-opacity="0.34"/></radialGradient></defs><rect width="1200" height="800" fill="url(#sky)"/><circle cx="880" cy="190" r="86" fill="#FFF0C4" opacity="0.9"/><g fill="#16294A" opacity="0.3"><rect x="-40" y="202.2" width="106.6" height="257.8"/><rect x="81.5" y="359.1" width="85.6" height="100.9"/><rect x="119.3" y="317.1" width="10" height="42"/><rect x="178.9" y="280.4" width="105.4" height="179.6"/><rect x="226.6" y="238.4" width="10" height="42"/><rect x="291.6" y="250.2" width="111.7" height="209.8"/><rect x="342.5" y="208.2" width="10" height="42"/><rect x="412.6" y="244.3" width="62.7" height="215.7"/><rect x="439" y="202.3" width="10" height="42"/><rect x="484.1" y="296.8" width="78.2" height="163.2"/><rect x="576.4" y="234" width="73.2" height="226"/><rect x="665.7" y="262.6" width="105.5" height="197.4"/><rect x="782.5" y="273.5" width="72.2" height="186.5"/><rect x="813.6" y="231.5" width="10" height="42"/><rect x="869.4" y="358.1" width="54.4" height="101.9"/><rect x="891.6" y="316.1" width="10" height="42"/><rect x="940.7" y="322.7" width="100.9" height="137.3"/><rect x="986.2" y="280.7" width="10" height="42"/><rect x="1061.3" y="195.1" width="77.6" height="264.9"/><rect x="1144.5" y="322.2" width="122.2" height="137.8"/></g><rect x="0" y="500" width="1200" height="300" fill="#9AA4B3"/><rect x="0" y="500" width="1200" height="8" fill="#0A1626" opacity="0.2"/><g fill="#F7F3EA" opacity="0.9"><rect x="-20" y="556" width="106" height="10" rx="4"/><rect x="-20" y="586" width="106" height="10" rx="4"/><rect x="-14" y="556" width="10" height="56"/><rect x="62" y="556" width="10" height="56"/><rect x="110" y="556" width="106" height="10" rx="4"/><rect x="110" y="586" width="106" height="10" rx="4"/><rect x="116" y="556" width="10" height="56"/><rect x="192" y="556" width="10" height="56"/><rect x="240" y="556" width="106" height="10" rx="4"/><rect x="240" y="586" width="106" height="10" rx="4"/><rect x="246" y="556" width="10" height="56"/><rect x="322" y="556" width="10" height="56"/><rect x="370" y="556" width="106" height="10" rx="4"/><rect x="370" y="586" width="106" height="10" rx="4"/><rect x="376" y="556" width="10" height="56"/><rect x="452" y="556" width="10" height="56"/><rect x="500" y="556" width="106" height="10" rx="4"/><rect x="500" y="586" width="106" height="10" rx="4"/><rect x="506" y="556" width="10" height="56"/><rect x="582" y="556" width="10" height="56"/><rect x="630" y="556" width="106" height="10" rx="4"/><rect x="630" y="586" width="106" height="10" rx="4"/><rect x="636" y="556" width="10" height="56"/><rect x="712" y="556" width="10" height="56"/><rect x="760" y="556" width="106" height="10" rx="4"/><rect x="760" y="586" width="106" height="10" rx="4"/><rect x="766" y="556" width="10" height="56"/><rect x="842" y="556" width="10" height="56"/><rect x="890" y="556" width="106" height="10" rx="4"/><rect x="890" y="586" width="106" height="10" rx="4"/><rect x="896" y="556" width="10" height="56"/><rect x="972" y="556" width="10" height="56"/><rect x="1020" y="556" width="106" height="10" rx="4"/><rect x="1020" y="586" width="106" height="10" rx="4"/><rect x="1026" y="556" width="10" height="56"/><rect x="1102" y="556" width="10" height="56"/><rect x="1150" y="556" width="106" height="10" rx="4"/><rect x="1150" y="586" width="106" height="10" rx="4"/><rect x="1156" y="556" width="10" height="56"/><rect x="1232" y="556" width="10" height="56"/></g><g fill="#FBBE2E"><circle cx="210" cy="566" r="13" fill="#BE6B3D"/><path d="M196 582 q14 -8 28 0 l6 34 -12 2 -3 22h-10l-3 -22 -12 -2z" fill="#BE6B3D"/><circle cx="234" cy="600" r="17" opacity="0.95"/><circle cx="410" cy="566" r="13" fill="#BE6B3D"/><path d="M396 582 q14 -8 28 0 l6 34 -12 2 -3 22h-10l-3 -22 -12 -2z" fill="#BE6B3D"/><circle cx="434" cy="600" r="17" opacity="0.95"/><circle cx="610" cy="566" r="13" fill="#BE6B3D"/><path d="M596 582 q14 -8 28 0 l6 34 -12 2 -3 22h-10l-3 -22 -12 -2z" fill="#BE6B3D"/><circle cx="634" cy="600" r="17" opacity="0.95"/><circle cx="810" cy="566" r="13" fill="#BE6B3D"/><path d="M796 582 q14 -8 28 0 l6 34 -12 2 -3 22h-10l-3 -22 -12 -2z" fill="#BE6B3D"/><circle cx="834" cy="600" r="17" opacity="0.95"/><circle cx="210" cy="656" r="13" fill="#BE6B3D"/><path d="M196 672 q14 -8 28 0 l6 34 -12 2 -3 22h-10l-3 -22 -12 -2z" fill="#BE6B3D"/><circle cx="234" cy="690" r="17" opacity="0.95"/><circle cx="410" cy="656" r="13" fill="#BE6B3D"/><path d="M396 672 q14 -8 28 0 l6 34 -12 2 -3 22h-10l-3 -22 -12 -2z" fill="#BE6B3D"/><circle cx="434" cy="690" r="17" opacity="0.95"/><circle cx="610" cy="656" r="13" fill="#BE6B3D"/><path d="M596 672 q14 -8 28 0 l6 34 -12 2 -3 22h-10l-3 -22 -12 -2z" fill="#BE6B3D"/><circle cx="634" cy="690" r="17" opacity="0.95"/><circle cx="810" cy="656" r="13" fill="#BE6B3D"/><path d="M796 672 q14 -8 28 0 l6 34 -12 2 -3 22h-10l-3 -22 -12 -2z" fill="#BE6B3D"/><circle cx="834" cy="690" r="17" opacity="0.95"/></g><path d="M-20 200 Q600 246 1220 200" stroke="#0A1626" stroke-opacity="0.4" stroke-width="3" fill="none"/><path d="M12.3 203.2 L36.3 203.2 L24.3 229.2 Z" fill="#FBBE2E"/><path d="M100.9 208.8 L124.9 208.8 L112.9 234.8 Z" fill="#BE6B3D"/><path d="M189.4 213.5 L213.4 213.5 L201.4 239.5 Z" fill="#F7F3EA"/><path d="M278 217.3 L302 217.3 L290 243.3 Z" fill="#2F7BEE"/><path d="M366.6 220.1 L390.6 220.1 L378.6 246.1 Z" fill="#FBBE2E"/><path d="M455.1 221.9 L479.1 221.9 L467.1 247.9 Z" fill="#BE6B3D"/><path d="M543.7 222.9 L567.7 222.9 L555.7 248.9 Z" fill="#F7F3EA"/><path d="M632.3 222.9 L656.3 222.9 L644.3 248.9 Z" fill="#2F7BEE"/><path d="M720.9 221.9 L744.9 221.9 L732.9 247.9 Z" fill="#FBBE2E"/><path d="M809.4 220.1 L833.4 220.1 L821.4 246.1 Z" fill="#BE6B3D"/><path d="M898 217.3 L922 217.3 L910 243.3 Z" fill="#F7F3EA"/><path d="M986.6 213.5 L1010.6 213.5 L998.6 239.5 Z" fill="#2F7BEE"/><path d="M1075.1 208.8 L1099.1 208.8 L1087.1 234.8 Z" fill="#FBBE2E"/><path d="M1163.7 203.2 L1187.7 203.2 L1175.7 229.2 Z" fill="#BE6B3D"/><g fill="#0A1626"><g transform="translate(289 740) scale(1.1)"><circle cx="0" cy="-74" r="13"/><path d="M-14 -58 q14 -8 28 0 l6 34 -12 2 -3 22h-10l-3 -22 -12 -2z"/></g><g transform="translate(921.7 740) scale(0.9)"><circle cx="0" cy="-74" r="13"/><path d="M-14 -58 q14 -8 28 0 l6 34 -12 2 -3 22h-10l-3 -22 -12 -2z"/></g><g transform="translate(875.7 740) scale(1.1)"><circle cx="0" cy="-74" r="13"/><path d="M-14 -58 q14 -8 28 0 l6 34 -12 2 -3 22h-10l-3 -22 -12 -2z"/></g><g transform="translate(1123.8 740) scale(1)"><circle cx="0" cy="-74" r="13"/><path d="M-14 -58 q14 -8 28 0 l6 34 -12 2 -3 22h-10l-3 -22 -12 -2z"/></g><g transform="translate(263.8 740) scale(1)"><circle cx="0" cy="-74" r="13"/><path d="M-14 -58 q14 -8 28 0 l6 34 -12 2 -3 22h-10l-3 -22 -12 -2z"/></g><g transform="translate(648.7 740) scale(1.2)"><circle cx="0" cy="-74" r="13"/><path d="M-14 -58 q14 -8 28 0 l6 34 -12 2 -3 22h-10l-3 -22 -12 -2z"/></g><g transform="translate(474.4 740) scale(1)"><circle cx="0" cy="-74" r="13"/><path d="M-14 -58 q14 -8 28 0 l6 34 -12 2 -3 22h-10l-3 -22 -12 -2z"/></g><g transform="translate(467.3 740) scale(0.9)"><circle cx="0" cy="-74" r="13"/><path d="M-14 -58 q14 -8 28 0 l6 34 -12 2 -3 22h-10l-3 -22 -12 -2z"/></g><g transform="translate(929 740) scale(1.1)"><circle cx="0" cy="-74" r="13"/><path d="M-14 -58 q14 -8 28 0 l6 34 -12 2 -3 22h-10l-3 -22 -12 -2z"/></g><g transform="translate(863.3 740) scale(1.2)"><circle cx="0" cy="-74" r="13"/><path d="M-14 -58 q14 -8 28 0 l6 34 -12 2 -3 22h-10l-3 -22 -12 -2z"/></g><g transform="translate(662.5 740) scale(1.1)"><circle cx="0" cy="-74" r="13"/><path d="M-14 -58 q14 -8 28 0 l6 34 -12 2 -3 22h-10l-3 -22 -12 -2z"/></g><g transform="translate(772.9 740) scale(1.1)"><circle cx="0" cy="-74" r="13"/><path d="M-14 -58 q14 -8 28 0 l6 34 -12 2 -3 22h-10l-3 -22 -12 -2z"/></g><g transform="translate(717 740) scale(1.1)"><circle cx="0" cy="-74" r="13"/><path d="M-14 -58 q14 -8 28 0 l6 34 -12 2 -3 22h-10l-3 -22 -12 -2z"/></g><g transform="translate(287.8 740) scale(1.1)"><circle cx="0" cy="-74" r="13"/><path d="M-14 -58 q14 -8 28 0 l6 34 -12 2 -3 22h-10l-3 -22 -12 -2z"/></g></g><rect width="1200" height="800" fill="url(#glow)"/><rect width="1200" height="800" fill="url(#vig)"/></svg>
