<svg xmlns="http://www.w3.org/2000/svg" viewBox="0 0 1200 800" preserveAspectRatio="xMidYMid slice" role="img" aria-label="A hardware store with a striped awning"><title>A hardware store with a striped awning</title><defs><linearGradient id="sky" x1="0" y1="0" x2="0" y2="1"><stop offset="0" stop-color="#8FC2F5"/><stop offset="1" stop-color="#DFEDFC"/></linearGradient><radialGradient id="glow" cx="50%" cy="22%" r="72%"><stop offset="0" stop-color="#FFFFFF" stop-opacity="0.16"/><stop offset="1" stop-color="#FFFFFF" stop-opacity="0"/></radialGradient><radialGradient id="vig" cx="50%" cy="46%" r="78%"><stop offset="0.55" stop-color="#000000" stop-opacity="0"/><stop offset="1" stop-color="#000814" stop-opacity="0.34"/></radialGradient></defs><rect width="1200" height="800" fill="url(#sky)"/><circle cx="880" cy="190" r="86" fill="#FFF0C4" opacity="0.9"/><g fill="#FFFFFF" opacity="0.4" transform="translate(579.1 145.9) scale(1)"><ellipse cx="0" cy="0" rx="86" ry="24"/><ellipse cx="-46" cy="8" rx="52" ry="19"/><ellipse cx="42" cy="10" rx="60" ry="21"/></g><g fill="#FFFFFF" opacity="0.4" transform="translate(65.2 80.7) scale(1.3)"><ellipse cx="0" cy="0" rx="86" ry="24"/><ellipse cx="-46" cy="8" rx="52" ry="19"/><ellipse cx="42" cy="10" rx="60" ry="21"/></g><g fill="#16294A" opacity="0.26"><rect x="-40" y="197.1" width="62" height="222.9"/><rect x="37.5" y="267.3" width="79.8" height="152.7"/><rect x="72.4" y="225.3" width="10" height="42"/><rect x="129.5" y="248.7" width="67.7" height="171.3"/><rect x="201.8" y="225.5" width="49.3" height="194.5"/><rect x="221.4" y="183.5" width="10" height="42"/><rect x="263.3" y="234.9" width="121.2" height="185.1"/><rect x="390.2" y="178.3" width="101.2" height="241.7"/><rect x="435.8" y="136.3" width="10" height="42"/><rect x="497.8" y="151.8" width="123.1" height="268.2"/><rect x="554.3" y="109.8" width="10" height="42"/><rect x="638.2" y="215.3" width="98.1" height="204.7"/><rect x="741.8" y="341.3" width="83.6" height="78.7"/><rect x="778.6" y="299.3" width="10" height="42"/><rect x="840.9" y="358.6" width="83.7" height="61.4"/><rect x="942.3" y="351.6" width="50.4" height="68.4"/><rect x="962.5" y="309.6" width="10" height="42"/><rect x="1011.7" y="292.6" width="95.5" height="127.4"/><rect x="1054.4" y="250.6" width="10" height="42"/><rect x="1125.4" y="359.1" width="103" height="60.9"/><rect x="1171.9" y="317.1" width="10" height="42"/><rect x="1233.4" y="296.4" width="86.1" height="123.6"/></g><rect x="-60" y="310" width="248" height="380" fill="#57462F" opacity="0.92"/><rect x="946" y="232" width="314" height="458" fill="#57462F" opacity="0.8"/><g fill="#BBD8FB"><rect x="20" y="350" width="20" height="24.8" opacity="0.7"/><rect x="60" y="350" width="20" height="24.8" opacity="0.8"/><rect x="60" y="390" width="20" height="24.8" opacity="0.6"/><rect x="20" y="430" width="20" height="24.8" opacity="0.8"/><rect x="60" y="430" width="20" height="24.8" opacity="0.5"/><rect x="100" y="430" width="20" height="24.8" opacity="0.9"/><rect x="140" y="430" width="20" height="24.8" opacity="0.5"/><rect x="100" y="470" width="20" height="24.8" opacity="0.7"/><rect x="140" y="470" width="20" height="24.8" opacity="0.7"/><rect x="60" y="510" width="20" height="24.8" opacity="0.5"/><rect x="-20" y="550" width="20" height="24.8" opacity="0.6"/><rect x="100" y="550" width="20" height="24.8" opacity="0.8"/><rect x="140" y="550" width="20" height="24.8" opacity="0.5"/><rect x="-20" y="590" width="20" height="24.8" opacity="0.5"/></g><g fill="#BBD8FB"><rect x="986" y="272" width="20" height="24.8" opacity="0.6"/><rect x="986" y="312" width="20" height="24.8" opacity="0.8"/><rect x="1026" y="312" width="20" height="24.8" opacity="0.7"/><rect x="1066" y="312" width="20" height="24.8" opacity="0.7"/><rect x="1026" y="352" width="20" height="24.8" opacity="0.7"/><rect x="1066" y="352" width="20" height="24.8" opacity="0.8"/><rect x="986" y="392" width="20" height="24.8" opacity="0.5"/><rect x="1106" y="392" width="20" height="24.8" opacity="0.6"/><rect x="1146" y="392" width="20" height="24.8" opacity="0.9"/><rect x="986" y="432" width="20" height="24.8" opacity="0.7"/><rect x="1106" y="432" width="20" height="24.8" opacity="0.6"/><rect x="1026" y="472" width="20" height="24.8" opacity="0.8"/><rect x="1106" y="472" width="20" height="24.8" opacity="0.8"/><rect x="1146" y="472" width="20" height="24.8" opacity="0.7"/><rect x="1066" y="512" width="20" height="24.8" opacity="0.4"/><rect x="1106" y="512" width="20" height="24.8" opacity="0.8"/><rect x="1146" y="512" width="20" height="24.8" opacity="0.4"/><rect x="986" y="552" width="20" height="24.8" opacity="0.9"/><rect x="1066" y="552" width="20" height="24.8" opacity="0.8"/><rect x="1106" y="552" width="20" height="24.8" opacity="0.4"/><rect x="1066" y="592" width="20" height="24.8" opacity="0.4"/><rect x="1106" y="592" width="20" height="24.8" opacity="0.8"/><rect x="1146" y="592" width="20" height="24.8" opacity="0.9"/></g><rect x="178" y="163" width="778" height="527" fill="#6E5A3E"/><path d="M152 163 L567 71 L982 163 Z" fill="#4A3B27"/><rect x="224.7" y="223" width="101.1" height="130" rx="5" fill="#BBD8FB" opacity="0.7"/><rect x="224.7" y="223" width="101.1" height="130" rx="5" fill="none" stroke="#4A3B27" stroke-width="7"/><rect x="419.2" y="223" width="101.1" height="130" rx="5" fill="#BBD8FB" opacity="0.7"/><rect x="419.2" y="223" width="101.1" height="130" rx="5" fill="none" stroke="#4A3B27" stroke-width="7"/><rect x="613.7" y="223" width="101.1" height="130" rx="5" fill="#BBD8FB" opacity="0.7"/><rect x="613.7" y="223" width="101.1" height="130" rx="5" fill="none" stroke="#4A3B27" stroke-width="7"/><rect x="808.2" y="223" width="101.1" height="130" rx="5" fill="#BBD8FB" opacity="0.7"/><rect x="808.2" y="223" width="101.1" height="130" rx="5" fill="none" stroke="#4A3B27" stroke-width="7"/><rect x="270" y="395" width="8" height="34" fill="#4A3B27"/><rect x="144" y="425" width="260" height="74" rx="10" fill="#0F2138"/><text x="274" y="475" text-anchor="middle" font-family="'Space Grotesk','DM Sans',Helvetica,Arial,sans-serif" font-size="38" font-weight="700" letter-spacing="6" fill="#FBBE2E">HARDWARE</text><rect x="178" y="401" width="778" height="10" fill="#0A1626" opacity="0.15"/><path d="M158 513 L274.9 513 L274.9 579 L158 579 Z" fill="#E4D9C4"/><path d="M274.9 513 L391.7 513 L391.7 579 L274.9 579 Z" fill="#22836B"/><path d="M391.7 513 L508.6 513 L508.6 579 L391.7 579 Z" fill="#E4D9C4"/><path d="M508.6 513 L625.4 513 L625.4 579 L508.6 579 Z" fill="#22836B"/><path d="M625.4 513 L742.3 513 L742.3 579 L625.4 579 Z" fill="#E4D9C4"/><path d="M742.3 513 L859.1 513 L859.1 579 L742.3 579 Z" fill="#22836B"/><path d="M859.1 513 L976 513 L976 579 L859.1 579 Z" fill="#E4D9C4"/><rect x="158" y="505" width="818" height="12" rx="4" fill="#0A1626" opacity="0.25"/><rect x="212" y="599" width="628" height="75" rx="8" fill="#20344F"/><rect x="212" y="599" width="628" height="75" rx="8" fill="#66AEFF" opacity="0.34"/><rect x="521" y="599" width="10" height="75" fill="#4A3B27" opacity="0.8"/><rect x="832" y="599" width="84" height="91" rx="6" fill="#4A3B27"/><rect x="846" y="617" width="56" height="70" rx="4" fill="#BBD8FB" opacity="0.7"/><circle cx="896" cy="731" r="7" fill="#FBBE2E"/><rect x="0" y="690" width="1200" height="110" fill="#9AA4B3"/><rect x="0" y="690" width="1200" height="8" fill="#0A1626" opacity="0.25"/><rect x="0" y="754" width="1200" height="10" fill="#0A1626" opacity="0.18"/><g transform="translate(268 690)"><path d="M-38 0 L-8 -88 L8 -88 L38 0 Z" fill="#16294A"/><rect x="-25" y="-72" width="50" height="44" rx="4" fill="#F7F3EA" opacity="0.9"/></g><g fill="#0A1626"><g transform="translate(604.8 746) scale(0.8)"><circle cx="0" cy="-74" r="13"/><path d="M-14 -58 q14 -8 28 0 l6 34 -12 2 -3 22h-10l-3 -22 -12 -2z"/></g></g><g fill="#0A1626" opacity="0.9"><rect x="106" y="400" width="12" height="290"/><rect x="106" y="390" width="72" height="12" rx="6"/></g><circle cx="172" cy="412" r="21" fill="#FBBE2E" opacity="0.45"/><rect width="1200" height="800" fill="url(#glow)"/><rect width="1200" height="800" fill="url(#vig)"/></svg>
