<svg xmlns="http://www.w3.org/2000/svg" viewBox="0 0 1200 800" preserveAspectRatio="xMidYMid slice" role="img" aria-label="A record shop at night"><title>A record shop at night</title><defs><linearGradient id="sky" x1="0" y1="0" x2="0" y2="1"><stop offset="0" stop-color="#060E1C"/><stop offset="1" stop-color="#1B3E6C"/></linearGradient><radialGradient id="glow" cx="50%" cy="22%" r="72%"><stop offset="0" stop-color="#FFFFFF" stop-opacity="0.16"/><stop offset="1" stop-color="#FFFFFF" stop-opacity="0"/></radialGradient><radialGradient id="vig" cx="50%" cy="46%" r="78%"><stop offset="0.55" stop-color="#000000" stop-opacity="0"/><stop offset="1" stop-color="#000814" stop-opacity="0.34"/></radialGradient></defs><rect width="1200" height="800" fill="url(#sky)"/><circle cx="960" cy="170" r="52" fill="#D7E6FF" opacity="0.9"/><circle cx="936" cy="157" r="47" fill="#060E1C"/><circle cx="973.2" cy="232.2" r="1.6" fill="#FFFFFF" opacity="0.6"/><circle cx="821.2" cy="163.2" r="1.6" fill="#FFFFFF" opacity="0.4"/><circle cx="856.2" cy="21.1" r="1.5" fill="#FFFFFF" opacity="0.4"/><circle cx="630.7" cy="73.7" r="1.1" fill="#FFFFFF" opacity="0.3"/><circle cx="202.7" cy="350.2" r="2" fill="#FFFFFF" opacity="0.6"/><circle cx="442" cy="125" r="1.5" fill="#FFFFFF" opacity="0.4"/><circle cx="349.5" cy="61.6" r="2.5" fill="#FFFFFF" opacity="0.3"/><circle cx="1107.8" cy="277.4" r="2.2" fill="#FFFFFF" opacity="0.4"/><circle cx="629.8" cy="42.6" r="2.4" fill="#FFFFFF" opacity="0.5"/><circle cx="716.8" cy="115.5" r="2.2" fill="#FFFFFF" opacity="0.5"/><circle cx="857.2" cy="64.3" r="2.2" fill="#FFFFFF" opacity="0.4"/><circle cx="1099.4" cy="199.7" r="1.7" fill="#FFFFFF" opacity="0.5"/><circle cx="23.1" cy="124.6" r="1.6" fill="#FFFFFF" opacity="0.5"/><circle cx="805.8" cy="216" r="1.2" fill="#FFFFFF" opacity="0.8"/><circle cx="676" cy="92.4" r="1.5" fill="#FFFFFF" opacity="0.3"/><circle cx="792" cy="116.8" r="1.2" fill="#FFFFFF" opacity="0.8"/><circle cx="708.2" cy="287.5" r="2.2" fill="#FFFFFF" opacity="0.8"/><circle cx="1131.8" cy="52" r="1.4" fill="#FFFFFF" opacity="0.3"/><circle cx="547.6" cy="105.5" r="1.9" fill="#FFFFFF" opacity="0.8"/><circle cx="660.5" cy="182.1" r="1.5" fill="#FFFFFF" opacity="0.4"/><circle cx="570.8" cy="103.4" r="1.9" fill="#FFFFFF" opacity="0.6"/><circle cx="972.7" cy="344.8" r="1.8" fill="#FFFFFF" opacity="0.6"/><circle cx="682.2" cy="197.9" r="1.6" fill="#FFFFFF" opacity="0.7"/><circle cx="776" cy="254.8" r="1.7" fill="#FFFFFF" opacity="0.8"/><circle cx="1109.6" cy="185.7" r="1.6" fill="#FFFFFF" opacity="0.3"/><circle cx="728.1" cy="112.9" r="1.5" fill="#FFFFFF" opacity="0.4"/><circle cx="540.4" cy="132.1" r="1.2" fill="#FFFFFF" opacity="0.3"/><circle cx="1138.2" cy="345" r="1.7" fill="#FFFFFF" opacity="0.7"/><circle cx="1171.1" cy="251.4" r="2.2" fill="#FFFFFF" opacity="0.5"/><circle cx="309.3" cy="233.3" r="1.3" fill="#FFFFFF" opacity="0.5"/><circle cx="457.8" cy="245.1" r="2.3" fill="#FFFFFF" opacity="0.5"/><circle cx="923.1" cy="223.9" r="2" fill="#FFFFFF" opacity="0.7"/><circle cx="195.4" cy="179.3" r="1" fill="#FFFFFF" opacity="0.4"/><circle cx="543.7" cy="336.1" r="1.8" fill="#FFFFFF" opacity="0.4"/><circle cx="319.5" cy="77.3" r="1" fill="#FFFFFF" opacity="0.7"/><circle cx="508.9" cy="92.8" r="1.9" fill="#FFFFFF" opacity="0.6"/><circle cx="814.9" cy="159.9" r="1.1" fill="#FFFFFF" opacity="0.3"/><circle cx="55.9" cy="161.6" r="2.2" fill="#FFFFFF" opacity="0.6"/><circle cx="871.2" cy="194" r="2" fill="#FFFFFF" opacity="0.4"/><circle cx="931.8" cy="273.3" r="1.4" fill="#FFFFFF" opacity="0.7"/><circle cx="322.7" cy="278.8" r="2.5" fill="#FFFFFF" opacity="0.5"/><circle cx="114.1" cy="96.4" r="1.9" fill="#FFFFFF" opacity="0.7"/><circle cx="326.2" cy="181.9" r="1.4" fill="#FFFFFF" opacity="0.3"/><circle cx="465.5" cy="272.1" r="1.1" fill="#FFFFFF" opacity="0.5"/><circle cx="933.2" cy="238" r="1.6" fill="#FFFFFF" opacity="0.6"/><circle cx="905.9" cy="307" r="1.7" fill="#FFFFFF" opacity="0.8"/><circle cx="269.2" cy="320.5" r="1.3" fill="#FFFFFF" opacity="0.4"/><circle cx="983" cy="176.6" r="2.2" fill="#FFFFFF" opacity="0.8"/><circle cx="1122" cy="30.6" r="2.2" fill="#FFFFFF" opacity="0.3"/><circle cx="910.9" cy="126.9" r="1.4" fill="#FFFFFF" opacity="0.4"/><circle cx="367" cy="63" r="1.1" fill="#FFFFFF" opacity="0.7"/><circle cx="771.2" cy="256.5" r="1.3" fill="#FFFFFF" opacity="0.6"/><circle cx="133.5" cy="358.7" r="2.5" fill="#FFFFFF" opacity="0.3"/><circle cx="95.6" cy="257.4" r="2.4" fill="#FFFFFF" opacity="0.6"/><circle cx="645" cy="170.5" r="1.2" fill="#FFFFFF" opacity="0.8"/><circle cx="1125.5" cy="27.5" r="2.2" fill="#FFFFFF" opacity="0.6"/><circle cx="159" cy="337.7" r="2.1" fill="#FFFFFF" opacity="0.7"/><circle cx="636.1" cy="23.9" r="1.8" fill="#FFFFFF" opacity="0.6"/><circle cx="90.1" cy="274.3" r="1.4" fill="#FFFFFF" opacity="0.3"/><circle cx="955.9" cy="193.5" r="2" fill="#FFFFFF" opacity="0.5"/><circle cx="746.3" cy="269.2" r="2.1" fill="#FFFFFF" opacity="0.4"/><circle cx="403.8" cy="121.2" r="1.2" fill="#FFFFFF" opacity="0.4"/><circle cx="158.6" cy="302.3" r="1.7" fill="#FFFFFF" opacity="0.5"/><circle cx="877.4" cy="46.2" r="1" fill="#FFFFFF" opacity="0.8"/><circle cx="1169.4" cy="271.2" r="1.1" fill="#FFFFFF" opacity="0.7"/><circle cx="651.1" cy="164.2" r="2.4" fill="#FFFFFF" opacity="0.4"/><circle cx="225.7" cy="66.3" r="1.4" fill="#FFFFFF" opacity="0.4"/><circle cx="854.8" cy="108.3" r="1.3" fill="#FFFFFF" opacity="0.8"/><circle cx="737.5" cy="65.1" r="2.3" fill="#FFFFFF" opacity="0.5"/><circle cx="343.3" cy="76.4" r="2.4" fill="#FFFFFF" opacity="0.7"/><g fill="#0C1B33" opacity="1"><rect x="-40" y="172.9" width="112.8" height="247.1"/><rect x="11.4" y="130.9" width="10" height="42"/><rect x="81.5" y="267.6" width="99.9" height="152.4"/><rect x="196" y="306.3" width="62.8" height="113.7"/><rect x="222.4" y="264.3" width="10" height="42"/><rect x="264.5" y="335" width="99.7" height="85"/><rect x="381.1" y="341.2" width="88.8" height="78.8"/><rect x="481.8" y="346.5" width="118.8" height="73.5"/><rect x="614.8" y="159" width="82.5" height="261"/><rect x="651.1" y="117" width="10" height="42"/><rect x="704.2" y="229.5" width="116.2" height="190.5"/><rect x="757.3" y="187.5" width="10" height="42"/><rect x="838.4" y="150.9" width="83.5" height="269.1"/><rect x="875.1" y="108.9" width="10" height="42"/><rect x="932.8" y="187.3" width="68.8" height="232.7"/><rect x="1009" y="240.4" width="45.4" height="179.6"/><rect x="1064.2" y="258.2" width="70.8" height="161.8"/><rect x="1141.2" y="242" width="59.2" height="178"/><rect x="1212.7" y="158.9" width="62.5" height="261.1"/><rect x="1238.9" y="116.9" width="10" height="42"/></g><rect x="-60" y="263" width="274" height="427" fill="#6E3232" opacity="0.92"/><rect x="947" y="290" width="313" height="400" fill="#6E3232" opacity="0.8"/><g fill="#FBBE2E"><rect x="-20" y="343" width="20" height="24.8" opacity="0.8"/><rect x="20" y="383" width="20" height="24.8" opacity="0.4"/><rect x="100" y="383" width="20" height="24.8" opacity="0.8"/><rect x="140" y="383" width="20" height="24.8" opacity="0.5"/><rect x="-20" y="423" width="20" height="24.8" opacity="0.5"/><rect x="20" y="423" width="20" height="24.8" opacity="0.9"/><rect x="60" y="423" width="20" height="24.8" opacity="0.5"/><rect x="140" y="423" width="20" height="24.8" opacity="0.9"/><rect x="20" y="463" width="20" height="24.8" opacity="0.7"/><rect x="60" y="463" width="20" height="24.8" opacity="0.5"/><rect x="100" y="463" width="20" height="24.8" opacity="0.8"/><rect x="140" y="463" width="20" height="24.8" opacity="0.5"/><rect x="20" y="503" width="20" height="24.8" opacity="0.5"/><rect x="100" y="503" width="20" height="24.8" opacity="0.7"/><rect x="140" y="503" width="20" height="24.8" opacity="0.7"/><rect x="60" y="543" width="20" height="24.8" opacity="0.7"/><rect x="100" y="543" width="20" height="24.8" opacity="0.5"/><rect x="140" y="543" width="20" height="24.8" opacity="0.9"/><rect x="140" y="583" width="20" height="24.8" opacity="0.5"/></g><g fill="#FBBE2E"><rect x="1027" y="330" width="20" height="24.8" opacity="0.6"/><rect x="1067" y="330" width="20" height="24.8" opacity="0.9"/><rect x="1107" y="330" width="20" height="24.8" opacity="0.7"/><rect x="1147" y="330" width="20" height="24.8" opacity="0.7"/><rect x="987" y="370" width="20" height="24.8" opacity="0.9"/><rect x="1027" y="370" width="20" height="24.8" opacity="0.4"/><rect x="1107" y="370" width="20" height="24.8" opacity="0.6"/><rect x="1107" y="410" width="20" height="24.8" opacity="0.8"/><rect x="1067" y="450" width="20" height="24.8" opacity="0.5"/><rect x="1107" y="450" width="20" height="24.8" opacity="0.5"/><rect x="1147" y="450" width="20" height="24.8" opacity="0.7"/><rect x="987" y="490" width="20" height="24.8" opacity="0.6"/><rect x="1027" y="490" width="20" height="24.8" opacity="0.9"/><rect x="1107" y="490" width="20" height="24.8" opacity="0.6"/><rect x="1147" y="490" width="20" height="24.8" opacity="0.4"/><rect x="1027" y="530" width="20" height="24.8" opacity="0.7"/><rect x="1067" y="530" width="20" height="24.8" opacity="0.9"/><rect x="1107" y="530" width="20" height="24.8" opacity="0.5"/><rect x="1027" y="570" width="20" height="24.8" opacity="0.8"/><rect x="1107" y="570" width="20" height="24.8" opacity="0.6"/><rect x="1147" y="570" width="20" height="24.8" opacity="0.7"/><rect x="1067" y="610" width="20" height="24.8" opacity="0.6"/></g><rect x="204" y="176" width="753" height="514" fill="#8C3F3F"/><rect x="188" y="150" width="785" height="34" rx="6" fill="#5E2828"/><rect x="196" y="186" width="769" height="10" fill="#0A1626" opacity="0.2"/><path d="M240.1 366 L240.1 270 a39.2 34 0 0 1 78.3 0 L318.4 366 Z" fill="#FBBE2E" opacity="0.85"/><path d="M240.1 366 L240.1 270 a39.2 34 0 0 1 78.3 0 L318.4 366 Z" fill="none" stroke="#5E2828" stroke-width="7"/><path d="M390.7 366 L390.7 270 a39.2 34 0 0 1 78.3 0 L469 366 Z" fill="#FBBE2E" opacity="0.85"/><path d="M390.7 366 L390.7 270 a39.2 34 0 0 1 78.3 0 L469 366 Z" fill="none" stroke="#5E2828" stroke-width="7"/><path d="M541.3 366 L541.3 270 a39.2 34 0 0 1 78.3 0 L619.6 366 Z" fill="#FBBE2E" opacity="0.85"/><path d="M541.3 366 L541.3 270 a39.2 34 0 0 1 78.3 0 L619.6 366 Z" fill="none" stroke="#5E2828" stroke-width="7"/><path d="M691.9 366 L691.9 270 a39.2 34 0 0 1 78.3 0 L770.2 366 Z" fill="#FBBE2E" opacity="0.85"/><path d="M691.9 366 L691.9 270 a39.2 34 0 0 1 78.3 0 L770.2 366 Z" fill="none" stroke="#5E2828" stroke-width="7"/><path d="M842.5 366 L842.5 270 a39.2 34 0 0 1 78.3 0 L920.8 366 Z" fill="#FBBE2E" opacity="0.85"/><path d="M842.5 366 L842.5 270 a39.2 34 0 0 1 78.3 0 L920.8 366 Z" fill="none" stroke="#5E2828" stroke-width="7"/><rect x="238" y="408" width="685" height="76" rx="8" fill="#F7F3EA"/><text x="580.5" y="462" text-anchor="middle" font-family="'Space Grotesk','DM Sans',Helvetica,Arial,sans-serif" font-size="46" font-weight="700" letter-spacing="9" fill="#5E2828">RECORDS</text><rect x="194" y="546" width="773" height="14" rx="6" fill="#5E2828"/><rect x="238" y="578" width="603" height="96" rx="8" fill="#2A1F12"/><rect x="238" y="578" width="603" height="96" rx="8" fill="#FBBE2E" opacity="0.55"/><rect x="534.5" y="578" width="10" height="96" fill="#5E2828" opacity="0.8"/><rect x="833" y="578" width="84" height="112" rx="6" fill="#5E2828"/><rect x="847" y="596" width="56" height="70" rx="4" fill="#FBBE2E" opacity="0.7"/><circle cx="897" cy="710" r="7" fill="#FBBE2E"/><rect x="0" y="690" width="1200" height="110" fill="#131C2B"/><rect x="0" y="690" width="1200" height="8" fill="#0A1626" opacity="0.25"/><rect x="0" y="754" width="1200" height="10" fill="#0A1626" opacity="0.18"/><g transform="translate(294 690)"><path d="M-38 0 L-8 -88 L8 -88 L38 0 Z" fill="#16294A"/><rect x="-25" y="-72" width="50" height="44" rx="4" fill="#F7F3EA" opacity="0.9"/></g><g fill="#0A1626"><g transform="translate(804.6 746) scale(1)"><circle cx="0" cy="-74" r="13"/><path d="M-14 -58 q14 -8 28 0 l6 34 -12 2 -3 22h-10l-3 -22 -12 -2z"/></g><g transform="translate(986 746) scale(0.9)"><circle cx="0" cy="-74" r="13"/><path d="M-14 -58 q14 -8 28 0 l6 34 -12 2 -3 22h-10l-3 -22 -12 -2z"/></g><g transform="translate(850.9 746) scale(0.9)"><circle cx="0" cy="-74" r="13"/><path d="M-14 -58 q14 -8 28 0 l6 34 -12 2 -3 22h-10l-3 -22 -12 -2z"/></g></g><g fill="#0A1626" opacity="0.9"><rect x="106" y="400" width="12" height="290"/><rect x="106" y="390" width="72" height="12" rx="6"/></g><circle cx="172" cy="412" r="21" fill="#FBBE2E" opacity="0.95"/><rect width="1200" height="800" fill="url(#glow)"/><rect width="1200" height="800" fill="url(#vig)"/></svg>
