<svg xmlns="http://www.w3.org/2000/svg" viewBox="0 0 1200 800" preserveAspectRatio="xMidYMid slice" role="img" aria-label="A gallery window at night"><title>A gallery window at night</title><defs><linearGradient id="sky" x1="0" y1="0" x2="0" y2="1"><stop offset="0" stop-color="#060E1C"/><stop offset="1" stop-color="#1B3E6C"/></linearGradient><radialGradient id="glow" cx="50%" cy="22%" r="72%"><stop offset="0" stop-color="#FFFFFF" stop-opacity="0.16"/><stop offset="1" stop-color="#FFFFFF" stop-opacity="0"/></radialGradient><radialGradient id="vig" cx="50%" cy="46%" r="78%"><stop offset="0.55" stop-color="#000000" stop-opacity="0"/><stop offset="1" stop-color="#000814" stop-opacity="0.34"/></radialGradient></defs><rect width="1200" height="800" fill="url(#sky)"/><circle cx="960" cy="170" r="52" fill="#D7E6FF" opacity="0.9"/><circle cx="936" cy="157" r="47" fill="#060E1C"/><circle cx="548.1" cy="197.1" r="2" fill="#FFFFFF" opacity="0.6"/><circle cx="923.1" cy="233.2" r="2.6" fill="#FFFFFF" opacity="0.3"/><circle cx="1101.6" cy="194" r="1.5" fill="#FFFFFF" opacity="0.6"/><circle cx="1097.8" cy="221.3" r="2.4" fill="#FFFFFF" opacity="0.8"/><circle cx="884.7" cy="268.9" r="1" fill="#FFFFFF" opacity="0.5"/><circle cx="349.8" cy="256.5" r="2" fill="#FFFFFF" opacity="0.8"/><circle cx="427.1" cy="57.9" r="1.6" fill="#FFFFFF" opacity="0.4"/><circle cx="324.2" cy="288.8" r="1" fill="#FFFFFF" opacity="0.4"/><circle cx="245.9" cy="57.7" r="1.9" fill="#FFFFFF" opacity="0.3"/><circle cx="914.9" cy="313.5" r="1" fill="#FFFFFF" opacity="0.8"/><circle cx="306.7" cy="47.8" r="1.9" fill="#FFFFFF" opacity="0.3"/><circle cx="549.3" cy="141.6" r="1.8" fill="#FFFFFF" opacity="0.6"/><circle cx="857.9" cy="205.5" r="2" fill="#FFFFFF" opacity="0.3"/><circle cx="291.6" cy="318.4" r="2.4" fill="#FFFFFF" opacity="0.3"/><circle cx="330.2" cy="255" r="2.5" fill="#FFFFFF" opacity="0.6"/><circle cx="804.3" cy="268.4" r="1.6" fill="#FFFFFF" opacity="0.7"/><circle cx="469" cy="43.1" r="2.3" fill="#FFFFFF" opacity="0.3"/><circle cx="134.6" cy="146.8" r="2.1" fill="#FFFFFF" opacity="0.5"/><circle cx="615" cy="281.2" r="1.1" fill="#FFFFFF" opacity="0.3"/><circle cx="1111.8" cy="35.5" r="2.5" fill="#FFFFFF" opacity="0.3"/><circle cx="885.1" cy="249.5" r="1.2" fill="#FFFFFF" opacity="0.7"/><circle cx="312.5" cy="164.6" r="1.2" fill="#FFFFFF" opacity="0.3"/><circle cx="693.7" cy="23.9" r="2.1" fill="#FFFFFF" opacity="0.5"/><circle cx="40.7" cy="228.5" r="2.4" fill="#FFFFFF" opacity="0.4"/><circle cx="535.1" cy="340.4" r="2.4" fill="#FFFFFF" opacity="0.7"/><circle cx="140" cy="314.4" r="1.1" fill="#FFFFFF" opacity="0.6"/><circle cx="314.1" cy="51.7" r="2.4" fill="#FFFFFF" opacity="0.5"/><circle cx="580.4" cy="153.6" r="2.2" fill="#FFFFFF" opacity="0.3"/><circle cx="639" cy="112.5" r="1.7" fill="#FFFFFF" opacity="0.4"/><circle cx="719.4" cy="134.7" r="2.4" fill="#FFFFFF" opacity="0.7"/><circle cx="578.4" cy="123.6" r="1.7" fill="#FFFFFF" opacity="0.6"/><circle cx="993.5" cy="311.1" r="1.5" fill="#FFFFFF" opacity="0.6"/><circle cx="821.2" cy="37.2" r="2.1" fill="#FFFFFF" opacity="0.3"/><circle cx="991.7" cy="47.5" r="2.5" fill="#FFFFFF" opacity="0.5"/><circle cx="524.9" cy="63.2" r="2.3" fill="#FFFFFF" opacity="0.7"/><circle cx="842.7" cy="299.6" r="1.7" fill="#FFFFFF" opacity="0.8"/><circle cx="1163.1" cy="122" r="1.9" fill="#FFFFFF" opacity="0.6"/><circle cx="561.1" cy="302.2" r="2.3" fill="#FFFFFF" opacity="0.8"/><circle cx="219.3" cy="212.1" r="1" fill="#FFFFFF" opacity="0.4"/><circle cx="404.7" cy="119.4" r="2.3" fill="#FFFFFF" opacity="0.3"/><circle cx="138.9" cy="181.6" r="1.2" fill="#FFFFFF" opacity="0.7"/><circle cx="679.7" cy="39.9" r="1.8" fill="#FFFFFF" opacity="0.5"/><circle cx="1138.4" cy="229.2" r="1.6" fill="#FFFFFF" opacity="0.3"/><circle cx="237.7" cy="66.6" r="1.4" fill="#FFFFFF" opacity="0.5"/><circle cx="464.8" cy="175.5" r="1.3" fill="#FFFFFF" opacity="0.7"/><circle cx="135.8" cy="162.4" r="2.5" fill="#FFFFFF" opacity="0.6"/><circle cx="939.3" cy="198.5" r="1.6" fill="#FFFFFF" opacity="0.3"/><circle cx="1173.2" cy="107.8" r="1.5" fill="#FFFFFF" opacity="0.8"/><circle cx="1157.7" cy="22.2" r="1.2" fill="#FFFFFF" opacity="0.6"/><circle cx="1135.8" cy="95.4" r="2" fill="#FFFFFF" opacity="0.7"/><circle cx="520.9" cy="211.8" r="2.3" fill="#FFFFFF" opacity="0.6"/><circle cx="163.9" cy="253.3" r="2.5" fill="#FFFFFF" opacity="0.5"/><circle cx="1116.5" cy="99.4" r="1.3" fill="#FFFFFF" opacity="0.8"/><circle cx="103.5" cy="296.8" r="1.7" fill="#FFFFFF" opacity="0.7"/><circle cx="1074.9" cy="113.5" r="1.3" fill="#FFFFFF" opacity="0.4"/><circle cx="973.9" cy="119" r="1.6" fill="#FFFFFF" opacity="0.3"/><circle cx="714.3" cy="172.8" r="1.8" fill="#FFFFFF" opacity="0.4"/><circle cx="1006.8" cy="312.2" r="1.1" fill="#FFFFFF" opacity="0.3"/><circle cx="747" cy="112.8" r="2" fill="#FFFFFF" opacity="0.4"/><circle cx="618.5" cy="73.9" r="1.8" fill="#FFFFFF" opacity="0.8"/><circle cx="665.5" cy="224.5" r="1.7" fill="#FFFFFF" opacity="0.5"/><circle cx="550.4" cy="139.7" r="1.2" fill="#FFFFFF" opacity="0.4"/><circle cx="600.2" cy="77.6" r="2.4" fill="#FFFFFF" opacity="0.6"/><circle cx="1153.3" cy="279.5" r="1.8" fill="#FFFFFF" opacity="0.5"/><circle cx="1131" cy="249.7" r="2.1" fill="#FFFFFF" opacity="0.6"/><circle cx="298.8" cy="121.3" r="1.4" fill="#FFFFFF" opacity="0.4"/><circle cx="791.1" cy="173.6" r="2.3" fill="#FFFFFF" opacity="0.7"/><circle cx="226.4" cy="206.4" r="1.2" fill="#FFFFFF" opacity="0.5"/><circle cx="397.9" cy="246" r="1.2" fill="#FFFFFF" opacity="0.4"/><circle cx="65" cy="325.4" r="1.4" fill="#FFFFFF" opacity="0.7"/><g fill="#0C1B33" opacity="1"><rect x="-40" y="327" width="108.7" height="93"/><rect x="9.4" y="285" width="10" height="42"/><rect x="88" y="233.5" width="110.2" height="186.5"/><rect x="213.7" y="194.5" width="109.7" height="225.5"/><rect x="330.7" y="155.1" width="113.8" height="264.9"/><rect x="382.6" y="113.1" width="10" height="42"/><rect x="450.9" y="163" width="111.6" height="257"/><rect x="580.7" y="270.4" width="89.1" height="149.6"/><rect x="681.1" y="255.8" width="75" height="164.2"/><rect x="761.6" y="219.6" width="47.4" height="200.4"/><rect x="822.4" y="238.2" width="80.3" height="181.8"/><rect x="915.8" y="187.9" width="113" height="232.1"/><rect x="1036.5" y="223.9" width="119.5" height="196.1"/><rect x="1167.1" y="176.1" width="101.8" height="243.9"/></g><rect x="-60" y="304" width="285" height="386" fill="#3B3750" opacity="0.92"/><rect x="949" y="262" width="311" height="428" fill="#3B3750" opacity="0.8"/><g fill="#FBBE2E"><rect x="60" y="344" width="20" height="24.8" opacity="0.6"/><rect x="-20" y="384" width="20" height="24.8" opacity="0.5"/><rect x="20" y="384" width="20" height="24.8" opacity="0.7"/><rect x="60" y="424" width="20" height="24.8" opacity="0.5"/><rect x="140" y="424" width="20" height="24.8" opacity="0.5"/><rect x="180" y="424" width="20" height="24.8" opacity="0.5"/><rect x="-20" y="464" width="20" height="24.8" opacity="0.6"/><rect x="20" y="464" width="20" height="24.8" opacity="0.6"/><rect x="100" y="464" width="20" height="24.8" opacity="0.4"/><rect x="140" y="464" width="20" height="24.8" opacity="0.7"/><rect x="-20" y="504" width="20" height="24.8" opacity="0.5"/><rect x="140" y="504" width="20" height="24.8" opacity="0.7"/><rect x="20" y="544" width="20" height="24.8" opacity="0.4"/><rect x="60" y="544" width="20" height="24.8" opacity="0.8"/><rect x="100" y="544" width="20" height="24.8" opacity="0.5"/><rect x="180" y="544" width="20" height="24.8" opacity="0.4"/><rect x="20" y="584" width="20" height="24.8" opacity="0.8"/><rect x="60" y="584" width="20" height="24.8" opacity="0.5"/><rect x="140" y="584" width="20" height="24.8" opacity="0.9"/><rect x="180" y="584" width="20" height="24.8" opacity="0.6"/></g><g fill="#FBBE2E"><rect x="989" y="302" width="20" height="24.8" opacity="0.7"/><rect x="1069" y="302" width="20" height="24.8" opacity="0.4"/><rect x="1149" y="302" width="20" height="24.8" opacity="0.5"/><rect x="989" y="382" width="20" height="24.8" opacity="0.9"/><rect x="1029" y="382" width="20" height="24.8" opacity="0.7"/><rect x="1109" y="382" width="20" height="24.8" opacity="0.5"/><rect x="1149" y="382" width="20" height="24.8" opacity="0.6"/><rect x="1149" y="422" width="20" height="24.8" opacity="0.5"/><rect x="989" y="502" width="20" height="24.8" opacity="0.9"/><rect x="1029" y="582" width="20" height="24.8" opacity="0.6"/><rect x="1069" y="582" width="20" height="24.8" opacity="0.7"/><rect x="1149" y="582" width="20" height="24.8" opacity="0.4"/></g><rect x="215" y="159" width="744" height="531" fill="#4A4560"/><path d="M189 159 L587 67 L985 159 Z" fill="#2E2B40"/><rect x="279" y="219" width="120" height="130" rx="5" fill="#FBBE2E" opacity="0.85"/><rect x="279" y="219" width="120" height="130" rx="5" fill="none" stroke="#2E2B40" stroke-width="7"/><rect x="527" y="219" width="120" height="130" rx="5" fill="#FBBE2E" opacity="0.85"/><rect x="527" y="219" width="120" height="130" rx="5" fill="none" stroke="#2E2B40" stroke-width="7"/><rect x="775" y="219" width="120" height="130" rx="5" fill="#FBBE2E" opacity="0.85"/><rect x="775" y="219" width="120" height="130" rx="5" fill="none" stroke="#2E2B40" stroke-width="7"/><rect x="215" y="385" width="744" height="88" fill="#0A1626" opacity="0.14"/><text x="587" y="447" text-anchor="middle" font-family="'Space Grotesk','DM Sans',Helvetica,Arial,sans-serif" font-size="52" font-weight="700" letter-spacing="12" fill="#F7F3EA" opacity="0.92">GALLERY</text><rect x="205" y="529" width="764" height="14" rx="6" fill="#2E2B40"/><rect x="365" y="561" width="560" height="113" rx="8" fill="#2A1F12"/><rect x="365" y="561" width="560" height="113" rx="8" fill="#FBBE2E" opacity="0.55"/><rect x="640" y="561" width="10" height="113" fill="#2E2B40" opacity="0.8"/><rect x="255" y="561" width="84" height="129" rx="6" fill="#2E2B40"/><rect x="269" y="579" width="56" height="70" rx="4" fill="#FBBE2E" opacity="0.7"/><circle cx="319" cy="693" r="7" fill="#FBBE2E"/><rect x="0" y="690" width="1200" height="110" fill="#131C2B"/><rect x="0" y="690" width="1200" height="8" fill="#0A1626" opacity="0.25"/><rect x="0" y="754" width="1200" height="10" fill="#0A1626" opacity="0.18"/><g transform="translate(869 690)" fill="#8E4A28"><rect x="-86" y="-44" width="172" height="14" rx="6"/><rect x="-86" y="-80" width="172" height="12" rx="6"/><rect x="-78" y="-30" width="12" height="30"/><rect x="66" y="-30" width="12" height="30"/></g><g fill="#0A1626"><g transform="translate(246.6 746) scale(1)"><circle cx="0" cy="-74" r="13"/><path d="M-14 -58 q14 -8 28 0 l6 34 -12 2 -3 22h-10l-3 -22 -12 -2z"/></g><g transform="translate(220.2 746) scale(0.8)"><circle cx="0" cy="-74" r="13"/><path d="M-14 -58 q14 -8 28 0 l6 34 -12 2 -3 22h-10l-3 -22 -12 -2z"/></g><g transform="translate(1011.9 746) scale(0.8)"><circle cx="0" cy="-74" r="13"/><path d="M-14 -58 q14 -8 28 0 l6 34 -12 2 -3 22h-10l-3 -22 -12 -2z"/></g></g><g fill="#0A1626" opacity="0.9"><rect x="1082" y="400" width="12" height="290"/><rect x="1022" y="390" width="72" height="12" rx="6"/></g><circle cx="1028" cy="412" r="21" fill="#FBBE2E" opacity="0.95"/><rect width="1200" height="800" fill="url(#glow)"/><rect width="1200" height="800" fill="url(#vig)"/></svg>
