<svg xmlns="http://www.w3.org/2000/svg" viewBox="0 0 1200 800" preserveAspectRatio="xMidYMid slice" role="img" aria-label="An auto shop with a truck at the kerb"><title>An auto shop with a truck at the kerb</title><defs><linearGradient id="sky" x1="0" y1="0" x2="0" y2="1"><stop offset="0" stop-color="#A5B8CD"/><stop offset="1" stop-color="#E7EDF4"/></linearGradient><radialGradient id="glow" cx="50%" cy="22%" r="72%"><stop offset="0" stop-color="#FFFFFF" stop-opacity="0.16"/><stop offset="1" stop-color="#FFFFFF" stop-opacity="0"/></radialGradient><radialGradient id="vig" cx="50%" cy="46%" r="78%"><stop offset="0.55" stop-color="#000000" stop-opacity="0"/><stop offset="1" stop-color="#000814" stop-opacity="0.34"/></radialGradient></defs><rect width="1200" height="800" fill="url(#sky)"/><circle cx="640" cy="150" r="86" fill="#FFFFFF" opacity="0.35"/><g fill="#FFFFFF" opacity="0.7" transform="translate(828.8 127.9) scale(0.6)"><ellipse cx="0" cy="0" rx="86" ry="24"/><ellipse cx="-46" cy="8" rx="52" ry="19"/><ellipse cx="42" cy="10" rx="60" ry="21"/></g><g fill="#FFFFFF" opacity="0.7" transform="translate(730.3 91.8) scale(1.2)"><ellipse cx="0" cy="0" rx="86" ry="24"/><ellipse cx="-46" cy="8" rx="52" ry="19"/><ellipse cx="42" cy="10" rx="60" ry="21"/></g><g fill="#16294A" opacity="0.26"><rect x="-40" y="259.9" width="95.6" height="160.1"/><rect x="2.8" y="217.9" width="10" height="42"/><rect x="59.7" y="244" width="90.9" height="176"/><rect x="100.1" y="202" width="10" height="42"/><rect x="162.1" y="337.9" width="73.2" height="82.1"/><rect x="250.4" y="189" width="63.1" height="231"/><rect x="276.9" y="147" width="10" height="42"/><rect x="325.2" y="185.6" width="48.2" height="234.4"/><rect x="344.3" y="143.6" width="10" height="42"/><rect x="391.2" y="318.1" width="74.3" height="101.9"/><rect x="423.4" y="276.1" width="10" height="42"/><rect x="477.9" y="220.5" width="80.5" height="199.5"/><rect x="575.2" y="160.5" width="91.1" height="259.5"/><rect x="615.8" y="118.5" width="10" height="42"/><rect x="683.8" y="322.2" width="58.4" height="97.8"/><rect x="708" y="280.2" width="10" height="42"/><rect x="762.1" y="276.8" width="76.1" height="143.2"/><rect x="847.1" y="300.1" width="84.4" height="119.9"/><rect x="884.3" y="258.1" width="10" height="42"/><rect x="939.8" y="250.1" width="61.9" height="169.9"/><rect x="1020.7" y="175.3" width="111.2" height="244.7"/><rect x="1140.7" y="275.6" width="77.1" height="144.4"/></g><rect x="-60" y="245" width="237" height="445" fill="#1D4557" opacity="0.92"/><rect x="1007" y="224" width="253" height="466" fill="#1D4557" opacity="0.8"/><g fill="#BBD8FB"><rect x="20" y="285" width="20" height="24.8" opacity="0.9"/><rect x="60" y="285" width="20" height="24.8" opacity="0.9"/><rect x="-20" y="325" width="20" height="24.8" opacity="0.5"/><rect x="20" y="325" width="20" height="24.8" opacity="0.8"/><rect x="100" y="325" width="20" height="24.8" opacity="0.5"/><rect x="-20" y="405" width="20" height="24.8" opacity="0.4"/><rect x="20" y="405" width="20" height="24.8" opacity="0.5"/><rect x="60" y="405" width="20" height="24.8" opacity="0.9"/><rect x="100" y="405" width="20" height="24.8" opacity="0.9"/><rect x="20" y="445" width="20" height="24.8" opacity="0.9"/><rect x="60" y="445" width="20" height="24.8" opacity="0.5"/><rect x="100" y="445" width="20" height="24.8" opacity="0.4"/><rect x="-20" y="485" width="20" height="24.8" opacity="0.6"/><rect x="100" y="485" width="20" height="24.8" opacity="0.6"/><rect x="60" y="525" width="20" height="24.8" opacity="0.7"/><rect x="60" y="565" width="20" height="24.8" opacity="0.4"/><rect x="100" y="565" width="20" height="24.8" opacity="0.8"/><rect x="-20" y="605" width="20" height="24.8" opacity="0.5"/><rect x="60" y="605" width="20" height="24.8" opacity="0.9"/><rect x="100" y="605" width="20" height="24.8" opacity="0.8"/></g><g fill="#BBD8FB"><rect x="1047" y="264" width="20" height="24.8" opacity="0.8"/><rect x="1087" y="264" width="20" height="24.8" opacity="0.9"/><rect x="1127" y="304" width="20" height="24.8" opacity="0.4"/><rect x="1087" y="344" width="20" height="24.8" opacity="0.6"/><rect x="1127" y="344" width="20" height="24.8" opacity="0.7"/><rect x="1167" y="344" width="20" height="24.8" opacity="0.5"/><rect x="1087" y="384" width="20" height="24.8" opacity="0.4"/><rect x="1127" y="384" width="20" height="24.8" opacity="0.9"/><rect x="1167" y="384" width="20" height="24.8" opacity="0.4"/><rect x="1047" y="424" width="20" height="24.8" opacity="0.9"/><rect x="1047" y="464" width="20" height="24.8" opacity="0.9"/><rect x="1087" y="464" width="20" height="24.8" opacity="0.4"/><rect x="1127" y="464" width="20" height="24.8" opacity="0.9"/><rect x="1167" y="464" width="20" height="24.8" opacity="0.4"/><rect x="1087" y="504" width="20" height="24.8" opacity="0.5"/><rect x="1167" y="504" width="20" height="24.8" opacity="0.9"/><rect x="1047" y="584" width="20" height="24.8" opacity="0.6"/><rect x="1167" y="584" width="20" height="24.8" opacity="0.4"/></g><rect x="167" y="154" width="850" height="536" fill="#26566E"/><path d="M141 154 L592 62 L1043 154 Z" fill="#163A4C"/><rect x="248.7" y="214" width="120" height="130" rx="5" fill="#BBD8FB" opacity="0.7"/><rect x="248.7" y="214" width="120" height="130" rx="5" fill="none" stroke="#163A4C" stroke-width="7"/><rect x="532" y="214" width="120" height="130" rx="5" fill="#BBD8FB" opacity="0.7"/><rect x="532" y="214" width="120" height="130" rx="5" fill="none" stroke="#163A4C" stroke-width="7"/><rect x="815.3" y="214" width="120" height="130" rx="5" fill="#BBD8FB" opacity="0.7"/><rect x="815.3" y="214" width="120" height="130" rx="5" fill="none" stroke="#163A4C" stroke-width="7"/><rect x="201" y="386" width="782" height="76" rx="8" fill="#F7F3EA"/><text x="592" y="440" text-anchor="middle" font-family="'Space Grotesk','DM Sans',Helvetica,Arial,sans-serif" font-size="46" font-weight="700" letter-spacing="9" fill="#163A4C">AUTO</text><rect x="157" y="524" width="870" height="14" rx="6" fill="#163A4C"/><rect x="201" y="556" width="700" height="118" rx="8" fill="#20344F"/><rect x="201" y="556" width="700" height="118" rx="8" fill="#66AEFF" opacity="0.34"/><rect x="546" y="556" width="10" height="118" fill="#163A4C" opacity="0.8"/><rect x="893" y="556" width="84" height="134" rx="6" fill="#163A4C"/><rect x="907" y="574" width="56" height="70" rx="4" fill="#BBD8FB" opacity="0.7"/><circle cx="957" cy="688" r="7" fill="#FBBE2E"/><rect x="0" y="690" width="1200" height="110" fill="#9AA4B3"/><rect x="0" y="690" width="1200" height="8" fill="#0A1626" opacity="0.25"/><rect x="0" y="754" width="1200" height="10" fill="#0A1626" opacity="0.18"/><g transform="translate(257 690)"><rect x="-150" y="-116" width="300" height="88" rx="12" fill="#FBBE2E"/><rect x="-118" y="-98" width="146" height="50" rx="6" fill="#F7F3EA" opacity="0.85"/><rect x="-150" y="-134" width="300" height="20" rx="8" fill="#F7F3EA"/><circle cx="-94" cy="-14" r="25" fill="#0A1626"/><circle cx="94" cy="-14" r="25" fill="#0A1626"/></g><g fill="#0A1626"><g transform="translate(539.2 746) scale(0.9)"><circle cx="0" cy="-74" r="13"/><path d="M-14 -58 q14 -8 28 0 l6 34 -12 2 -3 22h-10l-3 -22 -12 -2z"/></g></g><g fill="#0A1626" opacity="0.9"><rect x="106" y="400" width="12" height="290"/><rect x="106" y="390" width="72" height="12" rx="6"/></g><circle cx="172" cy="412" r="21" fill="#FBBE2E" opacity="0.45"/><rect width="1200" height="800" fill="url(#glow)"/><rect width="1200" height="800" fill="url(#vig)"/></svg>
